<svg width="350" height="193" viewBox="0 0 350 193" fill="none" xmlns="http://www.w3.org/2000/svg">
<path d="M19.3 193C8.6409 193 -0.100046 184.337 0.964022 173.732C4.48054 138.682 17.5416 105.128 38.8968 76.8054C64.1395 43.3271 99.5979 18.9798 139.909 7.44593C180.219 -4.08792 223.19 -2.18084 262.32 12.8787C295.424 25.619 324.257 47.1861 345.781 75.0716C352.294 83.5095 349.458 95.4844 340.412 101.123C331.366 106.761 319.55 103.904 312.828 95.6313C295.891 74.787 273.73 58.6295 248.456 48.903C217.152 36.8553 182.776 35.3297 150.527 44.5567C118.278 53.7838 89.9116 73.2617 69.7174 100.044C53.4138 121.667 43.1531 147.101 39.8045 173.75C38.4756 184.326 29.9591 193 19.3 193Z" fill="url(#paint0_linear_750_586)"/>
<defs>
<linearGradient id="paint0_linear_750_586" x1="297.175" y1="25.0453" x2="193.187" y2="387.471" gradientUnits="userSpaceOnUse">
<stop stop-color="#2CBE34"/>
<stop offset="1" stop-color="#156319"/>
</linearGradient>
</defs>
</svg>
